<svg xmlns="http://www.w3.org/2000/svg" xmlns:xlink="http://www.w3.org/1999/xlink" width="34" height="34" viewBox="0 0 34 34">
    <defs>
        <path id="a" d="M26.605 3.19c-1.78-1.245-3.818-2.133-6.103-2.661-3.75-.868-7.397-.476-10.913 1.076A16.503 16.503 0 0 0 4.447 5.15C2.598 7.03 1.263 9.158.449 11.535c-.05.148-.075.233-.102.317C-.488 14.6.293 16.12 1.52 14.847l.147-.163c1.49-1.845 3.774-3.329 3.774-3.329a22.346 22.346 0 0 1 1.814-1.119c.718-.415 1.469-.796 2.168-1.052 0 0 .65-.293.824-1.186.132-.819.94-2.862 3.223-2.996a3.67 3.67 0 0 1 2.052.322c1.101.517 1.946 1.55 2.118 2.798a3.74 3.74 0 0 1-.711 2.792 3.712 3.712 0 0 1-1.747 1.248c-.42.153-.846.23-1.254.242-.259.033-.543 0-.828-.07a3.019 3.019 0 0 1-.87-.31c-.442-.205-.8-.435-.932-.554a.717.717 0 0 0-.325-.173 1.04 1.04 0 0 0-.772.176c-.547.45-1.067.921-1.56 1.415-1.296 1.343-2.383 2.868-2.893 3.621a21.245 21.245 0 0 0-1.395 2.576 22.386 22.386 0 0 0-.845 2.176c-.011.035-.024.07-.035.107l-.046.147-.044.146c-1.572 5.309 1.257 8.374 3.627 5.172.13-.203.262-.404.397-.604 2.488-4.247 7.584-7.308 7.584-7.308a25.668 25.668 0 0 1 3.706-1.923c.821-.36 1.695-.698 2.42-.871 0 0 .849-.218 1.076-1.248a3.534 3.534 0 0 1 1.934-2.403A3.797 3.797 0 0 1 26 12.071c.21-.003.386.02.536.063 1.557.297 2.833 1.557 3.018 3.218a3.69 3.69 0 0 1-3.224 4.085c-1.012.125-1.928-.093-2.71-.677-.877-.361-1.551-.13-1.794-.017-.765.411-1.499.868-2.201 1.369a24.857 24.857 0 0 0-2.756 2.367 20.516 20.516 0 0 0-2.395 2.94l-.111.172a21.874 21.874 0 0 0-2.127 4.34c-.047.136-.095.271-.138.407-.67 2.23.78 3.117 2.454 3.44.266.033.533.06.801.079.066.004.131.022.196.035h2.207l.294-.028c.477-.058.956-.108 1.43-.187 3.26-.549 6.144-1.892 8.606-4.075 3.1-2.748 4.967-6.171 5.547-10.238.581-4.073-.234-7.892-2.469-11.37-1.257-1.957-2.78-3.559-4.56-4.804z"/>
    </defs>
    <use fill="#FFC900" fill-rule="evenodd" xlink:href="#a"/>
</svg>
